<?xml version="1.0" encoding="utf-8"?>
<!-- Generator: Adobe Illustrator 27.5.0, SVG Export Plug-In . SVG Version: 6.00 Build 0)  -->
<svg version="1.1" id="Layer_1" xmlns="http://www.w3.org/2000/svg" xmlns:xlink="http://www.w3.org/1999/xlink" x="0px" y="0px"
	 viewBox="0 0 128 70" style="enable-background:new 0 0 128 70;" xml:space="preserve">
<style type="text/css">
	.st0{fill:#215F87;}
	.st1{fill:#14AED4;}
</style>
<path class="st0" d="M97.6,0.4h30.3C122,6,109.1,20.7,87.4,45.5C73,62,82.1,67.1,88,69.6c0,0-50.1,0.1-19.8-35.5L97.6,0.4z"/>
<path class="st1" d="M61.7,0.4h26.2c-5.1,4.9-16.3,17.6-35,39c-12.4,14.2-4.6,18.7,0.5,20.9c0,0-43.3,0.1-17.1-30.7L61.7,0.4z"/>
<path class="st0" d="M29.3,0.4H52c-4.4,4.2-14.1,15.2-30.3,33.7c-10.7,12.3-4,16.2,0.4,18c0,0-37.4,0-14.8-26.5L29.3,0.4z"/>
</svg>
